<svg width="18" height="18" viewBox="0 0 18 18" fill="none" xmlns="http://www.w3.org/2000/svg">
<circle cx="1.5" cy="16.5" r="1" stroke-width="0.6" stroke="white"/>
<circle cx="8.5" cy="16.5" r="1" stroke-width="0.6" stroke="white"/>
<circle cx="16.5" cy="16.5" r="1" stroke-width="0.6" stroke="white"/>
<circle cx="2.5" cy="1.5" r="1" stroke-width="0.6" stroke="white"/>
<circle cx="16.5" cy="3.5" r="1" stroke-width="0.6" stroke="white"/>
<circle cx="3" cy="10" r="1.5" stroke-width="0.6" stroke="white"/>
<circle cx="14" cy="12" r="1.5" stroke-width="0.6" stroke="white"/>
<circle cx="9" cy="6" r="2.5" stroke-width="0.6" stroke="white"/>
<path d="M15.5 3.5L11 4.5M10.5 8L13 10.5M15 13.5L16 15.5M9.5 16L12.5 13M1.5 15.5L2.5 11.5M4 11.5L7.5 15.5M2.5 2.5L3 8.5M4.5 9L6.5 7.5M3.5 2L7 4" stroke-width="0.6" stroke="white" stroke-linecap="round"/>
</svg>
